<mxfile host="app.diagrams.net" agent="Mozilla/5.0 (Windows NT 10.0; Win64; x64; rv:141.0) Gecko/20100101 Firefox/141.0" version="28.1.0">
  <diagram name="Page-1" id="Qd-FF6Lor7_GVH9x_F0_">
    <mxGraphModel dx="3773" dy="1147" grid="1" gridSize="10" guides="1" tooltips="1" connect="1" arrows="1" fold="1" page="1" pageScale="1" pageWidth="827" pageHeight="1169" math="0" shadow="0">
      <root>
        <mxCell id="0" />
        <mxCell id="1" parent="0" />
        <mxCell id="mTN3L8EmEIhbVEELGd0C-1" value="Signal Passed At Danger" style="shape=process;whiteSpace=wrap;html=1;backgroundOutline=1;" vertex="1" parent="1">
          <mxGeometry x="350" y="550" width="120" height="60" as="geometry" />
        </mxCell>
        <mxCell id="mTN3L8EmEIhbVEELGd0C-27" style="edgeStyle=orthogonalEdgeStyle;rounded=0;orthogonalLoop=1;jettySize=auto;html=1;entryX=0.5;entryY=0;entryDx=0;entryDy=0;" edge="1" parent="1" source="mTN3L8EmEIhbVEELGd0C-2" target="mTN3L8EmEIhbVEELGd0C-1">
          <mxGeometry relative="1" as="geometry">
            <Array as="points">
              <mxPoint x="410" y="490" />
            </Array>
          </mxGeometry>
        </mxCell>
        <mxCell id="mTN3L8EmEIhbVEELGd0C-2" value="Signal not seen" style="rounded=1;whiteSpace=wrap;html=1;" vertex="1" parent="1">
          <mxGeometry x="110" y="460" width="120" height="60" as="geometry" />
        </mxCell>
        <mxCell id="mTN3L8EmEIhbVEELGd0C-49" style="edgeStyle=orthogonalEdgeStyle;rounded=0;orthogonalLoop=1;jettySize=auto;html=1;" edge="1" parent="1" source="mTN3L8EmEIhbVEELGd0C-3">
          <mxGeometry relative="1" as="geometry">
            <mxPoint x="410" y="550" as="targetPoint" />
            <Array as="points">
              <mxPoint x="411" y="490" />
            </Array>
          </mxGeometry>
        </mxCell>
        <mxCell id="mTN3L8EmEIhbVEELGd0C-3" value="Signal misinterpreted" style="rounded=1;whiteSpace=wrap;html=1;" vertex="1" parent="1">
          <mxGeometry x="669" y="460" width="120" height="60" as="geometry" />
        </mxCell>
        <mxCell id="mTN3L8EmEIhbVEELGd0C-28" style="edgeStyle=orthogonalEdgeStyle;rounded=0;orthogonalLoop=1;jettySize=auto;html=1;entryX=0.5;entryY=1;entryDx=0;entryDy=0;" edge="1" parent="1" source="mTN3L8EmEIhbVEELGd0C-4" target="mTN3L8EmEIhbVEELGd0C-1">
          <mxGeometry relative="1" as="geometry" />
        </mxCell>
        <mxCell id="mTN3L8EmEIhbVEELGd0C-4" value="Signal disregarded" style="rounded=1;whiteSpace=wrap;html=1;" vertex="1" parent="1">
          <mxGeometry x="110" y="630" width="120" height="60" as="geometry" />
        </mxCell>
        <mxCell id="mTN3L8EmEIhbVEELGd0C-38" style="edgeStyle=orthogonalEdgeStyle;rounded=0;orthogonalLoop=1;jettySize=auto;html=1;entryX=0.5;entryY=1;entryDx=0;entryDy=0;" edge="1" parent="1" source="mTN3L8EmEIhbVEELGd0C-5" target="mTN3L8EmEIhbVEELGd0C-1">
          <mxGeometry relative="1" as="geometry">
            <Array as="points">
              <mxPoint x="410" y="660" />
            </Array>
          </mxGeometry>
        </mxCell>
        <mxCell id="mTN3L8EmEIhbVEELGd0C-5" value="Signal system error" style="rounded=1;whiteSpace=wrap;html=1;" vertex="1" parent="1">
          <mxGeometry x="640" y="640" width="120" height="60" as="geometry" />
        </mxCell>
        <mxCell id="mTN3L8EmEIhbVEELGd0C-18" style="edgeStyle=orthogonalEdgeStyle;rounded=0;orthogonalLoop=1;jettySize=auto;html=1;entryX=0.5;entryY=1;entryDx=0;entryDy=0;startArrow=classic;startFill=1;endArrow=none;endFill=0;" edge="1" parent="1" source="mTN3L8EmEIhbVEELGd0C-6" target="mTN3L8EmEIhbVEELGd0C-10">
          <mxGeometry relative="1" as="geometry" />
        </mxCell>
        <mxCell id="mTN3L8EmEIhbVEELGd0C-26" style="edgeStyle=orthogonalEdgeStyle;rounded=0;orthogonalLoop=1;jettySize=auto;html=1;entryX=0.5;entryY=0;entryDx=0;entryDy=0;" edge="1" parent="1" source="mTN3L8EmEIhbVEELGd0C-6" target="mTN3L8EmEIhbVEELGd0C-2">
          <mxGeometry relative="1" as="geometry" />
        </mxCell>
        <mxCell id="mTN3L8EmEIhbVEELGd0C-6" value="Visually blocked signal" style="rounded=1;whiteSpace=wrap;html=1;" vertex="1" parent="1">
          <mxGeometry x="-10" y="380" width="70" height="60" as="geometry" />
        </mxCell>
        <mxCell id="mTN3L8EmEIhbVEELGd0C-25" style="edgeStyle=orthogonalEdgeStyle;rounded=0;orthogonalLoop=1;jettySize=auto;html=1;entryX=0.5;entryY=0;entryDx=0;entryDy=0;" edge="1" parent="1" source="mTN3L8EmEIhbVEELGd0C-7" target="mTN3L8EmEIhbVEELGd0C-2">
          <mxGeometry relative="1" as="geometry" />
        </mxCell>
        <mxCell id="mTN3L8EmEIhbVEELGd0C-7" value="Inability to see signal" style="rounded=1;whiteSpace=wrap;html=1;" vertex="1" parent="1">
          <mxGeometry x="292" y="380" width="70" height="60" as="geometry" />
        </mxCell>
        <mxCell id="mTN3L8EmEIhbVEELGd0C-8" value="&lt;div style=&quot;line-height: 0%;&quot;&gt;&lt;h1 align=&quot;left&quot; class=&quot;title-lg&quot;&gt;&lt;font style=&quot;font-size: 11px;&quot;&gt;•Technical failure in the case of automation (both)&lt;/font&gt;&lt;/h1&gt;&lt;div align=&quot;left&quot;&gt;&lt;font style=&quot;font-size: 10px;&quot;&gt;dirty lens, fogging, mechanical damage, dataset issues&amp;nbsp;&lt;/font&gt;&lt;/div&gt;&lt;div&gt;&lt;h1 align=&quot;left&quot; class=&quot;title-lg&quot;&gt;&lt;font style=&quot;font-size: 11px;&quot;&gt;•Communication loss (Eco)&lt;/font&gt;&lt;/h1&gt;&lt;div align=&quot;left&quot;&gt;&lt;font style=&quot;font-size: 10px;&quot;&gt;Power to signal loss, signal cable degredation&lt;/font&gt;&lt;/div&gt;&lt;div align=&quot;left&quot;&gt;&lt;font style=&quot;font-size: 10px;&quot;&gt;&lt;br&gt;&lt;/font&gt;&lt;/div&gt;&lt;div align=&quot;left&quot;&gt;&lt;br&gt;&lt;/div&gt;&lt;div align=&quot;left&quot;&gt;&lt;br&gt;&lt;/div&gt;&lt;br&gt;&lt;/div&gt;&lt;div&gt;&lt;br&gt;&lt;/div&gt;&lt;/div&gt;" style="text;html=1;align=center;verticalAlign=middle;whiteSpace=wrap;rounded=0;" vertex="1" parent="1">
          <mxGeometry x="292" y="190" width="260" height="60" as="geometry" />
        </mxCell>
        <mxCell id="mTN3L8EmEIhbVEELGd0C-9" value="&lt;div style=&quot;line-height: 10%;&quot;&gt;&lt;div&gt;&lt;h1 align=&quot;left&quot; style=&quot;line-height: 10%;&quot; class=&quot;title-lg&quot;&gt;&lt;font style=&quot;font-size: 11px; line-height: 10%;&quot;&gt;•Biological failure (Complicated, both)&lt;/font&gt;&lt;/h1&gt;&lt;div&gt;&lt;/div&gt;&lt;/div&gt;&lt;div style=&quot;line-height: 80%;&quot; align=&quot;left&quot;&gt;&lt;font style=&quot;font-size: 11px; line-height: 80%;&quot;&gt;Improperly tested eyesight, broken visual aid equiptment&lt;/font&gt;&lt;/div&gt;&lt;div align=&quot;left&quot;&gt;&lt;h1 style=&quot;line-height: 10%;&quot; class=&quot;title-lg&quot;&gt;&lt;font style=&quot;font-size: 11px; line-height: 10%;&quot;&gt;•Human inability to see (Ego)&lt;/font&gt;&lt;/h1&gt;&lt;div style=&quot;line-height: 90%;&quot;&gt;&lt;font style=&quot;font-size: 9px; line-height: 90%;&quot;&gt;Biological failure, sun glare, improperly placed signal, signal moved since training data created&lt;/font&gt;&lt;/div&gt;&lt;/div&gt;&lt;/div&gt;" style="text;html=1;align=left;verticalAlign=middle;whiteSpace=wrap;rounded=0;" vertex="1" parent="1">
          <mxGeometry x="292" y="280" width="308" height="60" as="geometry" />
        </mxCell>
        <mxCell id="mTN3L8EmEIhbVEELGd0C-10" value="Vegitation blocking signal" style="rounded=1;whiteSpace=wrap;html=1;" vertex="1" parent="1">
          <mxGeometry x="-160" y="280" width="70" height="60" as="geometry" />
        </mxCell>
        <mxCell id="mTN3L8EmEIhbVEELGd0C-11" value="&lt;div align=&quot;right&quot;&gt;Unprepared weather event (eco, meterologist)&lt;/div&gt;&lt;div align=&quot;right&quot;&gt;Mismanaged trackside flora (eco, Arborist)&lt;/div&gt;&lt;div align=&quot;right&quot;&gt;Debris blocking signal (eco, network Rail)&lt;/div&gt;" style="text;html=1;align=right;verticalAlign=middle;whiteSpace=wrap;rounded=0;" vertex="1" parent="1">
          <mxGeometry x="-360" y="200" width="270" height="70" as="geometry" />
        </mxCell>
        <mxCell id="mTN3L8EmEIhbVEELGd0C-12" value="Non-Vegitation blocking signal" style="rounded=1;whiteSpace=wrap;html=1;" vertex="1" parent="1">
          <mxGeometry x="-30" y="280" width="90" height="60" as="geometry" />
        </mxCell>
        <mxCell id="mTN3L8EmEIhbVEELGd0C-13" value="&lt;div&gt;Fallen signage&lt;/div&gt;&lt;div&gt;Vandalisation from tresspassers&lt;/div&gt;&lt;div&gt;Overpass structure creating temporary blind spot&lt;/div&gt;" style="text;html=1;align=left;verticalAlign=middle;whiteSpace=wrap;rounded=0;" vertex="1" parent="1">
          <mxGeometry x="-10" y="200" width="270" height="70" as="geometry" />
        </mxCell>
        <mxCell id="mTN3L8EmEIhbVEELGd0C-29" style="edgeStyle=orthogonalEdgeStyle;rounded=0;orthogonalLoop=1;jettySize=auto;html=1;entryX=0.5;entryY=1;entryDx=0;entryDy=0;" edge="1" parent="1" source="mTN3L8EmEIhbVEELGd0C-20" target="mTN3L8EmEIhbVEELGd0C-4">
          <mxGeometry relative="1" as="geometry" />
        </mxCell>
        <mxCell id="mTN3L8EmEIhbVEELGd0C-20" value="Ego-vehicle chooses to not brake" style="rounded=1;whiteSpace=wrap;html=1;" vertex="1" parent="1">
          <mxGeometry y="730" width="110" height="50" as="geometry" />
        </mxCell>
        <mxCell id="mTN3L8EmEIhbVEELGd0C-30" style="edgeStyle=orthogonalEdgeStyle;rounded=0;orthogonalLoop=1;jettySize=auto;html=1;entryX=0.5;entryY=1;entryDx=0;entryDy=0;" edge="1" parent="1" source="mTN3L8EmEIhbVEELGd0C-21" target="mTN3L8EmEIhbVEELGd0C-4">
          <mxGeometry relative="1" as="geometry">
            <Array as="points">
              <mxPoint x="327" y="710" />
              <mxPoint x="170" y="710" />
            </Array>
          </mxGeometry>
        </mxCell>
        <mxCell id="mTN3L8EmEIhbVEELGd0C-21" value="Braking system failure" style="rounded=1;whiteSpace=wrap;html=1;" vertex="1" parent="1">
          <mxGeometry x="272" y="730" width="110" height="50" as="geometry" />
        </mxCell>
        <mxCell id="mTN3L8EmEIhbVEELGd0C-32" style="edgeStyle=orthogonalEdgeStyle;rounded=0;orthogonalLoop=1;jettySize=auto;html=1;entryX=0.5;entryY=1;entryDx=0;entryDy=0;" edge="1" parent="1" source="mTN3L8EmEIhbVEELGd0C-22" target="mTN3L8EmEIhbVEELGd0C-21">
          <mxGeometry relative="1" as="geometry">
            <Array as="points">
              <mxPoint x="327" y="840" />
            </Array>
          </mxGeometry>
        </mxCell>
        <mxCell id="mTN3L8EmEIhbVEELGd0C-22" value="Technical Failure" style="rounded=1;whiteSpace=wrap;html=1;" vertex="1" parent="1">
          <mxGeometry x="210" y="810" width="70" height="60" as="geometry" />
        </mxCell>
        <mxCell id="mTN3L8EmEIhbVEELGd0C-31" style="edgeStyle=orthogonalEdgeStyle;rounded=0;orthogonalLoop=1;jettySize=auto;html=1;entryX=0.5;entryY=1;entryDx=0;entryDy=0;" edge="1" parent="1" source="mTN3L8EmEIhbVEELGd0C-23" target="mTN3L8EmEIhbVEELGd0C-21">
          <mxGeometry relative="1" as="geometry" />
        </mxCell>
        <mxCell id="mTN3L8EmEIhbVEELGd0C-23" value="Leaf adhesion" style="rounded=1;whiteSpace=wrap;html=1;" vertex="1" parent="1">
          <mxGeometry x="387" y="810" width="70" height="60" as="geometry" />
        </mxCell>
        <mxCell id="mTN3L8EmEIhbVEELGd0C-24" style="edgeStyle=orthogonalEdgeStyle;rounded=0;orthogonalLoop=1;jettySize=auto;html=1;exitX=0.5;exitY=1;exitDx=0;exitDy=0;entryX=0.318;entryY=-0.021;entryDx=0;entryDy=0;entryPerimeter=0;" edge="1" parent="1" source="mTN3L8EmEIhbVEELGd0C-12" target="mTN3L8EmEIhbVEELGd0C-6">
          <mxGeometry relative="1" as="geometry" />
        </mxCell>
        <mxCell id="mTN3L8EmEIhbVEELGd0C-34" value="&lt;div style=&quot;line-height: 0%;&quot;&gt;&lt;h1 class=&quot;title-lg&quot; align=&quot;left&quot;&gt;&lt;font style=&quot;font-size: 11px; line-height: 60%;&quot;&gt;•&lt;/font&gt;&lt;font style=&quot;font-size: 9px;&quot;&gt;Misjudgement of stopping d&lt;font&gt;istance (ego)&lt;/font&gt;&lt;/font&gt;&lt;/h1&gt;&lt;div&gt;&lt;h1 align=&quot;left&quot; class=&quot;title-lg&quot;&gt;&lt;font style=&quot;font-size: 9px;&quot;&gt;•Overconfidence of braking ability (ego)&lt;/font&gt;&lt;/h1&gt;&lt;div&gt;&lt;h1 align=&quot;left&quot; class=&quot;title-lg&quot;&gt;&lt;font style=&quot;font-size: 9px;&quot;&gt;•&lt;/font&gt;&lt;font style=&quot;font-size: 9px;&quot;&gt;Miscommunication with signaller (both)&lt;/font&gt;&lt;/h1&gt;&lt;div&gt;&lt;h1 align=&quot;left&quot; class=&quot;title-lg&quot;&gt;&lt;font style=&quot;font-size: 9px; line-height: 80%;&quot;&gt;•Incorrectly approved pass (Ego and signaller)&lt;/font&gt;&lt;/h1&gt;&lt;/div&gt;&lt;/div&gt;&lt;/div&gt;&lt;/div&gt;" style="text;whiteSpace=wrap;html=1;" vertex="1" parent="1">
          <mxGeometry y="760" width="170" height="80" as="geometry" />
        </mxCell>
        <mxCell id="mTN3L8EmEIhbVEELGd0C-36" value="&lt;div style=&quot;line-height: 0%;&quot;&gt;&lt;h1 class=&quot;title-lg&quot; align=&quot;left&quot;&gt;&lt;font style=&quot;font-size: 11px; line-height: 60%;&quot;&gt;•&lt;/font&gt;&lt;font style=&quot;font-size: 9px;&quot;&gt;Pneumatic/hydrolic braking falure&lt;font&gt;&amp;nbsp;(both, ego leaning)&lt;/font&gt;&lt;/font&gt;&lt;/h1&gt;&lt;div&gt;&lt;h1 align=&quot;left&quot; class=&quot;title-lg&quot;&gt;&lt;font style=&quot;font-size: 9px;&quot;&gt;•Loss of electrical control (ego)&lt;/font&gt;&lt;/h1&gt;&lt;div&gt;&lt;h1 align=&quot;left&quot; class=&quot;title-lg&quot;&gt;&lt;font style=&quot;font-size: 9px;&quot;&gt;•Overloaded train&lt;/font&gt;&lt;font style=&quot;font-size: 9px;&quot;&gt;(both, eco lean)&lt;/font&gt;&lt;/h1&gt;&lt;div&gt;&lt;h1 align=&quot;left&quot; class=&quot;title-lg&quot;&gt;&lt;br&gt;&lt;/h1&gt;&lt;/div&gt;&lt;/div&gt;&lt;/div&gt;&lt;/div&gt;" style="text;whiteSpace=wrap;html=1;" vertex="1" parent="1">
          <mxGeometry x="160" y="850" width="170" height="80" as="geometry" />
        </mxCell>
        <mxCell id="mTN3L8EmEIhbVEELGd0C-37" value="&lt;div align=&quot;right&quot; style=&quot;line-height: 0%;&quot;&gt;&lt;h1 class=&quot;title-lg&quot;&gt;&lt;font style=&quot;line-height: 60%; font-size: 9px;&quot;&gt;•Unnoticed leaf adhesion&lt;/font&gt;&lt;font style=&quot;font-size: 9px;&quot;&gt;&lt;font&gt;&amp;nbsp;(Both)&lt;/font&gt;&lt;/font&gt;&lt;/h1&gt;&lt;div&gt;&lt;h1 class=&quot;title-lg&quot;&gt;&lt;font style=&quot;font-size: 9px;&quot;&gt;•Oily tracks not being maintained (Eco)&lt;/font&gt;&lt;/h1&gt;&lt;div&gt;&lt;h1 class=&quot;title-lg&quot;&gt;&lt;font style=&quot;font-size: 9px;&quot;&gt;•Icy tracks misreported&amp;nbsp;&lt;/font&gt;&lt;font style=&quot;font-size: 9px;&quot;&gt;(Eco)&lt;/font&gt;&lt;/h1&gt;&lt;div&gt;&lt;h1 class=&quot;title-lg&quot;&gt;&lt;br&gt;&lt;/h1&gt;&lt;/div&gt;&lt;/div&gt;&lt;/div&gt;&lt;/div&gt;" style="text;whiteSpace=wrap;html=1;align=right;" vertex="1" parent="1">
          <mxGeometry x="310" y="860" width="170" height="80" as="geometry" />
        </mxCell>
        <mxCell id="mTN3L8EmEIhbVEELGd0C-44" style="edgeStyle=orthogonalEdgeStyle;rounded=0;orthogonalLoop=1;jettySize=auto;html=1;entryX=0.5;entryY=1;entryDx=0;entryDy=0;" edge="1" parent="1" source="mTN3L8EmEIhbVEELGd0C-39" target="mTN3L8EmEIhbVEELGd0C-5">
          <mxGeometry relative="1" as="geometry">
            <Array as="points">
              <mxPoint x="585" y="720" />
              <mxPoint x="700" y="720" />
            </Array>
          </mxGeometry>
        </mxCell>
        <mxCell id="mTN3L8EmEIhbVEELGd0C-39" value="Incorrect aspect displayed" style="rounded=1;whiteSpace=wrap;html=1;" vertex="1" parent="1">
          <mxGeometry x="530" y="730" width="110" height="50" as="geometry" />
        </mxCell>
        <mxCell id="mTN3L8EmEIhbVEELGd0C-47" style="edgeStyle=orthogonalEdgeStyle;rounded=0;orthogonalLoop=1;jettySize=auto;html=1;entryX=0.5;entryY=1;entryDx=0;entryDy=0;" edge="1" parent="1" source="mTN3L8EmEIhbVEELGd0C-40" target="mTN3L8EmEIhbVEELGd0C-5">
          <mxGeometry relative="1" as="geometry">
            <Array as="points">
              <mxPoint x="815" y="720" />
              <mxPoint x="700" y="720" />
            </Array>
          </mxGeometry>
        </mxCell>
        <mxCell id="mTN3L8EmEIhbVEELGd0C-40" value="Conflicting information given" style="rounded=1;whiteSpace=wrap;html=1;" vertex="1" parent="1">
          <mxGeometry x="760" y="730" width="110" height="50" as="geometry" />
        </mxCell>
        <mxCell id="mTN3L8EmEIhbVEELGd0C-41" value="Ego reality conflicts with signal" style="rounded=1;whiteSpace=wrap;html=1;" vertex="1" parent="1">
          <mxGeometry x="708" y="840" width="107" height="50" as="geometry" />
        </mxCell>
        <mxCell id="mTN3L8EmEIhbVEELGd0C-42" value="Maintenence flag alongside green" style="rounded=1;whiteSpace=wrap;html=1;" vertex="1" parent="1">
          <mxGeometry x="818" y="840" width="100" height="50" as="geometry" />
        </mxCell>
        <mxCell id="mTN3L8EmEIhbVEELGd0C-43" value="&lt;div align=&quot;left&quot; style=&quot;line-height: 0%;&quot;&gt;&lt;h1 class=&quot;title-lg&quot;&gt;&lt;font style=&quot;line-height: 60%; font-size: 9px;&quot;&gt;•Hardware failure causing light to not display (Eco)&lt;/font&gt;&lt;/h1&gt;&lt;div&gt;&lt;h1 class=&quot;title-lg&quot;&gt;&lt;font style=&quot;font-size: 9px;&quot;&gt;•Software error in signalling logic (Eco)&lt;/font&gt;&lt;/h1&gt;&lt;div&gt;&lt;h1 class=&quot;title-lg&quot;&gt;&lt;font style=&quot;font-size: 9px;&quot;&gt;•Mis-input by Signal operator (Eco)&lt;/font&gt;&lt;/h1&gt;&lt;div&gt;&lt;h1 class=&quot;title-lg&quot;&gt;&lt;br&gt;&lt;/h1&gt;&lt;/div&gt;&lt;/div&gt;&lt;/div&gt;&lt;/div&gt;" style="text;whiteSpace=wrap;html=1;align=left;" vertex="1" parent="1">
          <mxGeometry x="530" y="760" width="170" height="80" as="geometry" />
        </mxCell>
        <mxCell id="mTN3L8EmEIhbVEELGd0C-45" style="edgeStyle=orthogonalEdgeStyle;rounded=0;orthogonalLoop=1;jettySize=auto;html=1;entryX=0.511;entryY=0.947;entryDx=0;entryDy=0;entryPerimeter=0;" edge="1" parent="1" source="mTN3L8EmEIhbVEELGd0C-41" target="mTN3L8EmEIhbVEELGd0C-40">
          <mxGeometry relative="1" as="geometry" />
        </mxCell>
        <mxCell id="mTN3L8EmEIhbVEELGd0C-46" style="edgeStyle=orthogonalEdgeStyle;rounded=0;orthogonalLoop=1;jettySize=auto;html=1;entryX=0.511;entryY=0.937;entryDx=0;entryDy=0;entryPerimeter=0;" edge="1" parent="1" source="mTN3L8EmEIhbVEELGd0C-42" target="mTN3L8EmEIhbVEELGd0C-40">
          <mxGeometry relative="1" as="geometry" />
        </mxCell>
        <mxCell id="mTN3L8EmEIhbVEELGd0C-48" value="&lt;font style=&quot;font-size: 9px; line-height: 90%;&quot;&gt;Both options have a large amount of nuance due to the trust put into the signal operator by the ego-vehicle. Typically, if an issue arises where the ego-vehicle believes the signal is incorrect, they call the signaller and request clairty. Any risk regarding the clarity of signal state should be treat as a special case with it&#39;s own logic.&lt;/font&gt;" style="text;html=1;align=center;verticalAlign=middle;whiteSpace=wrap;rounded=0;" vertex="1" parent="1">
          <mxGeometry x="708" y="900" width="212" height="100" as="geometry" />
        </mxCell>
        <mxCell id="mTN3L8EmEIhbVEELGd0C-53" style="edgeStyle=orthogonalEdgeStyle;rounded=0;orthogonalLoop=1;jettySize=auto;html=1;endArrow=none;endFill=0;" edge="1" parent="1" source="mTN3L8EmEIhbVEELGd0C-50">
          <mxGeometry relative="1" as="geometry">
            <mxPoint x="730" y="458" as="targetPoint" />
            <Array as="points">
              <mxPoint x="680" y="440" />
              <mxPoint x="730" y="440" />
              <mxPoint x="730" y="460" />
              <mxPoint x="731" y="460" />
            </Array>
          </mxGeometry>
        </mxCell>
        <mxCell id="mTN3L8EmEIhbVEELGd0C-50" value="Human misinterpretation" style="rounded=1;whiteSpace=wrap;html=1;" vertex="1" parent="1">
          <mxGeometry x="635" y="350" width="90" height="60" as="geometry" />
        </mxCell>
        <mxCell id="mTN3L8EmEIhbVEELGd0C-54" style="edgeStyle=orthogonalEdgeStyle;rounded=0;orthogonalLoop=1;jettySize=auto;html=1;" edge="1" parent="1" source="mTN3L8EmEIhbVEELGd0C-51">
          <mxGeometry relative="1" as="geometry">
            <mxPoint x="730" y="460" as="targetPoint" />
            <Array as="points">
              <mxPoint x="780" y="440" />
              <mxPoint x="730" y="440" />
            </Array>
          </mxGeometry>
        </mxCell>
        <mxCell id="mTN3L8EmEIhbVEELGd0C-51" value="Machine misinterpretation" style="rounded=1;whiteSpace=wrap;html=1;" vertex="1" parent="1">
          <mxGeometry x="737" y="350" width="90" height="60" as="geometry" />
        </mxCell>
        <mxCell id="mTN3L8EmEIhbVEELGd0C-56" value="&lt;div style=&quot;line-height: 90%;&quot;&gt;&lt;font style=&quot;font-size: 9px; line-height: 90%;&quot;&gt;The level of misinterpretation and response regards the level of automation. This particular problem cannot be solved until Step 6 where we know for certain what our scope of automation is, as well as exactly what technologies we are using. For example, in the event of driver assistance technology, we have the problem of overreliance, but in driver replacement technology, we have the lack of oversight.&lt;/font&gt;&lt;/div&gt;" style="text;html=1;align=center;verticalAlign=middle;whiteSpace=wrap;rounded=0;" vertex="1" parent="1">
          <mxGeometry x="640" y="230" width="190" height="110" as="geometry" />
        </mxCell>
      </root>
    </mxGraphModel>
  </diagram>
</mxfile>
